# Blender 3.3.1
# www.blender.org
mtllib Guard.mtl
o 球.001
v -0.225891 -0.618062 -0.771975
v 0.189834 0.975984 -0.203282
v -0.070006 0.893439 -0.461335
v 0.196115 0.199514 -0.980482
v 0.092938 -0.293132 -0.961119
v 0.385242 0.487290 -0.794419
v 0.172654 0.703182 -0.717184
v 0.558883 -0.149714 -0.831077
v 0.336874 -0.474460 -0.826422
v 0.248711 -0.757496 -0.632487
v 0.327407 -0.898617 -0.336240
v 0.652487 0.409493 -0.668421
v 0.624289 -0.487417 -0.628039
v 0.095284 1.003959 0.083724
v 0.496393 0.788463 -0.391557
v 0.844562 0.108868 -0.547531
v 0.674180 0.763681 0.002109
v 0.850226 0.475433 -0.260919
v 0.943949 -0.191811 -0.335434
v 1.000522 0.115511 -0.064524
v 0.759822 -0.641350 -0.220106
v 0.168447 -0.984947 -0.112553
v 0.881804 0.467887 0.181001
v 0.956240 0.098975 0.307534
v 0.956628 -0.295861 0.173572
v 0.744334 -0.638968 0.230140
v 0.455747 -0.901325 0.002548
v 0.599604 0.638968 0.497466
v 0.411633 0.895946 0.221526
v 0.756879 0.292918 0.599509
v 0.765762 -0.098975 0.650062
v 0.689306 -0.475433 0.561978
v 0.345413 0.479008 0.825073
v 0.467235 -0.791403 0.422922
v 0.469502 -0.364021 0.825238
v 0.251166 0.779282 0.591233
v 0.371926 0.100138 0.941452
v 0.260919 -0.475433 0.850226
v 0.191191 -0.777723 0.609921
v 0.158944 -0.965865 0.244808
v 0.102623 0.932889 0.368494
v -0.000045 -0.031517 1.019163
v -0.080506 0.638968 0.774930
v -0.183979 0.307755 0.949415
v -0.183979 -0.307755 0.949415
v -0.236097 -0.607486 0.787473
v -0.378907 0.563562 0.755736
v -0.601983 0.077002 0.812629
v -0.140975 -0.901818 0.433682
v -0.385268 -0.787941 0.506962
v -0.198494 0.897346 0.428204
v -0.604884 0.638968 0.491032
v -0.893623 0.098976 0.458703
v -0.667528 -0.279475 0.712111
v -0.130902 -1.002543 -0.021483
v -0.752602 0.470410 0.496145
v -0.554854 0.805655 0.256621
v -0.898113 -0.388605 0.275974
v -0.721828 -0.600535 0.397319
v -0.442991 -0.893458 0.139565
v -0.884792 0.475433 0.090034
v -1.005684 0.130347 0.017193
v -0.956011 -0.313439 -0.047493
v -0.278834 0.970951 -0.019202
v -0.827658 0.479008 -0.339171
v -0.956239 -0.098976 -0.307534
v -0.435279 -0.900310 -0.146609
v -0.867751 0.115513 -0.502210
v -0.748151 -0.485139 -0.484161
v -0.746182 -0.661925 -0.189317
v -0.627993 0.767755 -0.228925
v -0.327088 0.887003 -0.348612
v -0.566425 0.475433 -0.685657
v -0.624227 0.098976 -0.786963
v -0.683322 -0.268550 -0.699176
v -0.425443 -0.792708 -0.455675
v -0.297418 0.588597 -0.778600
v -0.209111 0.071271 -0.990741
v -0.288332 -0.300258 -0.919952
v -0.110034 -0.895133 -0.451043
vn 0.0578 -0.5440 -0.8371
vn 0.1535 0.4634 -0.8728
vn 0.2957 -0.0993 -0.9501
vn 0.4703 0.2400 -0.8493
vn 0.2391 0.8543 -0.4615
vn 0.5177 -0.3650 -0.7738
vn 0.6478 0.1108 -0.7537
vn 0.7697 -0.1781 -0.6131
vn 0.5256 -0.7235 -0.4476
vn 0.6824 0.5931 -0.4271
vn 0.4488 0.8814 -0.1472
vn 0.5411 -0.8140 -0.2115
vn 0.9270 0.2221 -0.3024
vn 0.3182 0.9479 0.0124
vn 0.8523 -0.5221 0.0321
vn 0.9633 0.2373 0.1252
vn 0.5725 -0.7969 0.1927
vn 0.2574 -0.9646 0.0583
vn 0.0753 -0.9956 0.0552
vn 0.8976 -0.1409 0.4177
vn 0.6076 0.7437 0.2787
vn 0.3785 -0.8980 0.2245
vn 0.8486 0.0866 0.5219
vn 0.2229 0.9472 0.2306
vn 0.6681 -0.2955 0.6829
vn 0.2946 0.8672 0.4015
vn 0.4347 0.7874 0.4371
vn 0.4287 0.6350 0.6427
vn 0.5777 0.4612 0.6734
vn 0.5556 0.2794 0.7831
vn 0.2624 -0.1821 0.9476
vn 0.0934 -0.8884 0.4495
vn 0.0968 -0.3038 0.9478
vn 0.0137 0.8274 0.5615
vn 0.0159 -0.4774 0.8785
vn 0.0700 -0.6306 0.7730
vn -0.0459 -0.7740 0.6315
vn -0.0733 -0.9741 0.2139
vn -0.3212 0.0205 0.9468
vn -0.0660 0.9677 0.2432
vn -0.2280 0.7419 0.6305
vn -0.1813 0.5021 0.8456
vn -0.4429 0.3018 0.8443
vn -0.4422 -0.1672 0.8812
vn -0.4265 -0.3714 0.8247
vn -0.5291 -0.5468 0.6489
vn -0.3246 -0.8944 0.3079
vn -0.7461 0.2199 0.6285
vn -0.8510 -0.1774 0.4943
vn -0.7834 -0.3625 0.5049
vn -0.5376 -0.7843 0.3097
vn -0.7451 0.6183 0.2502
vn -0.9807 -0.1309 0.1451
vn -0.5070 0.8619 0.0091
vn -0.8508 -0.5246 0.0304
vn -0.7916 -0.6035 0.0960
vn -0.9918 -0.0992 -0.0810
vn -0.7997 0.5917 -0.1015
vn -0.8919 -0.3492 -0.2872
vn -0.9415 0.2188 -0.2563
vn -0.4197 0.8924 -0.1659
vn -0.5573 -0.7785 -0.2888
vn -0.6123 -0.6799 -0.4035
vn -0.6262 0.6157 -0.4784
vn -0.2880 -0.9015 -0.3230
vn -0.5094 -0.5246 -0.6821
vn -0.4854 0.7022 -0.5208
vn -0.2434 -0.7759 -0.5820
vn -0.0558 0.9918 -0.1151
vn -0.0981 0.7518 -0.6521
vn 0.0028 0.4634 -0.8862
vn -0.1028 -0.1650 -0.9809
vn 0.0690 -0.5784 -0.8128
vn 0.1114 -0.8854 -0.4513
vn 0.4724 0.6385 -0.6076
vn 0.0404 -0.0477 -0.9980
vn 0.3283 -0.2375 -0.9142
vn 0.1875 0.8650 -0.4654
vn 0.5051 0.1620 -0.8477
vn 0.4373 -0.5970 -0.6725
vn 0.4176 -0.6225 0.6619
vn 0.7613 -0.2194 -0.6101
vn 0.5407 -0.6946 -0.4745
vn 0.7929 -0.4344 -0.4274
vn 0.8223 0.3426 -0.4544
vn 0.3249 -0.9367 -0.1306
vn 0.9468 0.0964 -0.3070
vn 0.6920 0.6694 -0.2704
vn 0.8314 0.5534 -0.0500
vn 0.9324 0.3563 -0.0605
vn 0.9893 -0.1359 -0.0524
vn 0.4177 0.9074 -0.0471
vn 0.9106 -0.3998 -0.1044
vn 0.9925 -0.0385 0.1164
vn 0.6608 -0.7501 0.0267
vn 0.0745 -0.9470 -0.3125
vn 0.8465 -0.2781 0.4540
vn 0.8196 -0.4483 0.3568
vn 0.6443 -0.6383 0.4214
vn 0.7029 0.6575 0.2714
vn 0.7685 0.4755 0.4282
vn 0.8685 0.3084 0.3882
vn 0.5637 -0.0872 0.8214
vn 0.4629 -0.6089 0.6442
vn 0.6274 0.1136 0.7704
vn 0.2460 -0.8703 0.4267
vn 0.1253 0.2993 0.9459
vn 0.2327 -0.2234 0.9465
vn -0.4234 0.7786 0.4633
vn -0.0070 0.8007 0.5990
vn 0.1499 0.6363 0.7567
vn 0.0639 0.4494 0.8910
vn -0.3277 -0.0203 0.9446
vn -0.1836 -0.7794 0.5990
vn -0.1367 0.9733 0.1847
vn -0.9021 0.3125 0.2975
vn -0.5223 -0.5634 0.6402
vn -0.5710 0.5197 0.6355
vn -0.5914 0.3558 0.7237
vn -0.2266 -0.9520 0.2057
vn -0.7723 -0.0368 0.6341
vn -0.3378 0.9171 0.2115
vn -0.7132 0.6341 0.2987
vn -0.6728 -0.7324 0.1046
vn -0.9674 -0.0810 0.2398
vn -0.7200 0.6919 0.0544
vn -0.7499 0.3378 -0.5688
vn -0.3235 -0.9461 0.0139
vn -0.9286 0.3508 -0.1207
vn -0.8712 -0.4236 -0.2482
vn -0.9530 0.1593 -0.2576
vn -0.8392 -0.1325 -0.5274
vn -0.8423 -0.2312 -0.4869
vn -0.4174 0.2829 -0.8636
vn -0.7605 -0.0326 -0.6485
vn -0.2159 -0.9447 -0.2467
vn -0.5007 -0.5844 -0.6386
vn -0.4775 0.7094 -0.5184
vn -0.4635 -0.4472 -0.7650
vn -0.2660 0.7833 -0.5619
vn -0.4435 -0.0756 -0.8931
vn -0.0950 0.9719 -0.2153
vn -0.0886 -0.4347 -0.8962
vn -0.0342 -0.7626 -0.6460
vn -0.0918 0.3643 -0.9267
vn 0.4430 0.6551 -0.6120
vn 0.4133 -0.6253 0.6619
vn -0.0170 -0.9698 -0.2433
vn 0.1097 0.2569 0.9602
vn -0.3888 0.7437 0.5438
vn -0.9281 0.2714 0.2549
vn -0.6087 -0.7934 0.0026
vn -0.7212 0.2811 -0.6331
vn -0.4051 0.2951 -0.8653
vn -0.4917 -0.1267 -0.8615
vn -0.1241 0.9657 -0.2279
vt 0.794392 0.293676
vt 0.659331 0.901110
vt 0.770918 0.846073
vt 0.721204 0.561533
vt 0.734616 0.406655
vt 0.678319 0.660608
vt 0.713630 0.743016
vt 0.655388 0.455750
vt 0.689079 0.342315
vt 0.689098 0.234520
vt 0.634282 0.154944
vt 0.623657 0.627093
vt 0.626504 0.341903
vt 0.828125 1.000000
vt 0.374098 0.950679
vt 0.609744 0.781531
vt 0.591272 0.533801
vt 0.498423 0.766907
vt 0.546915 0.655822
vt 0.552878 0.438619
vt 0.509405 0.537235
vt 0.546046 0.282548
vt 0.593677 0.062500
vt 0.464857 0.646732
vt 0.451782 0.530835
vt 0.469690 0.406338
vt 0.453088 0.281661
vt 0.501208 0.149493
vt 0.390588 0.718339
vt 0.427294 0.845601
vt 0.392101 0.593583
vt 0.389282 0.469165
vt 0.390665 0.344178
vt 0.312582 0.656006
vt 0.383038 0.214491
vt 0.336748 0.386136
vt 0.312669 0.780174
vt 0.311555 0.530981
vt 0.296914 0.344178
vt 0.296902 0.219059
vt 0.337208 0.091485
vt 0.293360 0.875000
vt 0.249389 0.485887
vt 0.234338 0.718339
vt 0.221054 0.595265
vt 0.221054 0.404735
vt 0.208642 0.306289
vt 0.172803 0.686634
vt 0.147516 0.523151
vt 0.199919 0.148465
vt 0.141642 0.220296
vt 0.170820 0.841342
vt 0.108913 0.719958
vt 0.076782 0.530835
vt 0.131538 0.415904
vt 0.453125 0.000000
vt 0.079157 0.048815
vt 0.803482 0.029735
vt 0.088915 0.640758
vt 0.066931 0.793298
vt 0.046955 0.375390
vt 0.084466 0.292801
vt 0.055088 0.153620
vt 1.000000 0.655822
vt 0.015664 0.655822
vt 0.993268 0.527207
vt 0.010664 0.538824
vt 0.000000 0.399333
vt 0.992171 0.399333
vt 0.031154 0.911618
vt 0.945396 0.911618
vt 0.937739 0.656003
vt 0.951782 0.469165
vt 0.949425 0.148089
vt 0.000000 0.148089
vt 0.915655 0.537235
vt 0.906611 0.344360
vt 0.959766 0.278455
vt 0.000000 0.273040
vt 0.000000 0.784407
vt 0.945557 0.768646
vt 0.872374 0.843190
vt 0.859414 0.655822
vt 0.858032 0.530836
vt 0.871569 0.414693
vt 0.868449 0.212346
vt 0.804501 0.694669
vt 0.785227 0.524248
vt 0.797630 0.405349
vt 0.790497 0.152675
s 0
usemtl マテリアル.002
f 5/5/1 9/9/1 1/1/1
f 7/7/2 6/6/2 4/4/2
f 4/4/3 8/8/3 5/5/3
f 6/6/4 12/12/4 4/4/4
f 2/2/5 15/16/5 7/7/5
f 8/8/6 13/13/6 9/9/6
f 8/8/7 12/12/7 16/17/7
f 16/17/8 19/20/8 8/8/8
f 13/13/9 21/22/9 10/10/9
f 12/12/10 15/16/10 18/19/10
f 2/2/11 17/18/11 15/16/11
f 11/11/12 21/22/12 27/28/12
f 16/17/13 18/19/13 20/21/13
f 2/2/14 14/15/14 29/30/14
f 21/22/15 25/26/15 26/27/15
f 20/21/16 23/24/16 24/25/16
f 27/28/17 26/27/17 34/35/17
f 22/23/18 27/28/18 40/41/18
f 55/56/19 22/23/19 40/41/19
f 24/25/20 31/32/20 25/26/20
f 29/30/21 28/29/21 17/18/21
f 34/35/22 40/41/22 27/28/22
f 24/25/23 30/31/23 31/32/23
f 14/15/24 41/42/24 29/30/24
f 31/32/25 35/36/25 32/33/25
f 29/30/26 41/42/26 36/37/26
f 29/30/27 36/37/27 28/29/27
f 28/29/28 36/37/28 33/34/28
f 28/29/29 33/34/29 30/31/29
f 30/31/30 33/34/30 37/38/30
f 37/38/31 42/43/31 35/36/31
f 39/40/32 49/50/32 40/41/32
f 42/43/33 45/46/33 38/39/33
f 36/37/34 41/42/34 51/52/34
f 38/39/35 45/46/35 46/47/35
f 38/39/36 46/47/36 39/40/36
f 39/40/37 46/47/37 49/50/37
f 49/50/38 55/57/38 40/41/38
f 42/43/39 44/45/39 48/49/39
f 41/42/40 14/15/40 51/52/40
f 51/52/41 47/48/41 43/44/41
f 43/44/42 47/48/42 44/45/42
f 44/45/43 47/48/43 48/49/43
f 48/49/44 54/55/44 45/46/44
f 45/46/45 54/55/45 46/47/45
f 46/47/46 54/55/46 59/62/46
f 50/51/47 60/63/47 49/50/47
f 48/49/48 56/59/48 53/54/48
f 53/54/49 58/61/49 54/55/49
f 54/55/50 58/61/50 59/62/50
f 50/51/51 59/62/51 60/63/51
f 56/59/52 57/60/52 61/65/52
f 62/67/53 63/68/53 58/61/53
f 57/60/54 64/70/54 71/80/54
f 58/61/55 63/68/55 70/79/55
f 58/61/56 70/79/56 59/62/56
f 62/66/57 66/73/57 63/69/57
f 61/64/58 71/81/58 65/72/58
f 66/73/59 69/77/59 63/69/59
f 62/66/60 65/72/60 68/76/60
f 64/71/61 72/82/61 71/81/61
f 67/74/62 70/78/62 76/86/62
f 69/77/63 76/86/63 70/78/63
f 65/72/64 71/81/64 73/83/64
f 76/86/65 80/90/65 67/74/65
f 69/77/66 75/85/66 1/1/66
f 72/82/67 77/87/67 71/81/67
f 76/86/68 1/1/68 80/90/68
f 64/71/69 14/14/69 2/2/69
f 77/87/70 3/3/70 7/7/70
f 77/87/71 7/7/71 4/4/71
f 78/88/72 5/5/72 79/89/72
f 1/1/73 9/9/73 10/10/73
f 80/90/74 10/10/74 11/11/74
f 6/6/75 15/16/75 12/12/75
f 78/88/76 4/4/76 5/5/76
f 5/5/77 8/8/77 9/9/77
f 3/3/78 2/2/78 7/7/78
f 4/4/79 12/12/79 8/8/79
f 10/10/80 9/9/80 13/13/80
f 34/35/81 38/39/81 39/40/81
f 8/8/82 19/20/82 13/13/82
f 10/10/83 21/22/83 11/11/83
f 21/22/84 13/13/84 19/20/84
f 16/17/85 12/12/85 18/19/85
f 22/23/86 11/11/86 27/28/86
f 19/20/87 16/17/87 20/21/87
f 18/19/88 15/16/88 17/18/88
f 18/19/89 17/18/89 23/24/89
f 20/21/90 18/19/90 23/24/90
f 19/20/91 20/21/91 25/26/91
f 2/2/92 29/30/92 17/18/92
f 21/22/93 19/20/93 25/26/93
f 20/21/94 24/25/94 25/26/94
f 27/28/95 21/22/95 26/27/95
f 22/23/96 80/90/96 11/11/96
f 25/26/97 31/32/97 32/33/97
f 26/27/98 25/26/98 32/33/98
f 26/27/99 32/33/99 34/35/99
f 23/24/100 17/18/100 28/29/100
f 23/24/101 28/29/101 30/31/101
f 24/25/102 23/24/102 30/31/102
f 31/32/103 37/38/103 35/36/103
f 32/33/104 35/36/104 34/35/104
f 31/32/105 30/31/105 37/38/105
f 34/35/106 39/40/106 40/41/106
f 44/45/107 37/38/107 33/34/107
f 35/36/108 42/43/108 38/39/108
f 52/53/109 51/52/109 57/60/109
f 36/37/110 51/52/110 43/44/110
f 33/34/111 36/37/111 43/44/111
f 33/34/112 43/44/112 44/45/112
f 42/43/113 48/49/113 45/46/113
f 49/50/114 46/47/114 50/51/114
f 14/15/115 64/70/115 51/52/115
f 61/65/116 53/54/116 56/59/116
f 46/47/117 59/62/117 50/51/117
f 47/48/118 52/53/118 56/59/118
f 48/49/119 47/48/119 56/59/119
f 49/50/120 60/63/120 55/57/120
f 48/49/121 53/54/121 54/55/121
f 51/52/122 64/70/122 57/60/122
f 52/53/123 57/60/123 56/59/123
f 70/79/124 60/63/124 59/62/124
f 53/54/125 62/67/125 58/61/125
f 61/65/126 57/60/126 71/80/126
f 73/83/127 68/76/127 65/72/127
f 60/63/128 67/75/128 55/57/128
f 62/66/129 61/64/129 65/72/129
f 70/78/130 63/69/130 69/77/130
f 66/73/131 62/66/131 68/76/131
f 66/73/132 68/76/132 75/85/132
f 66/73/133 75/85/133 69/77/133
f 78/88/134 73/83/134 77/87/134
f 68/76/135 74/84/135 75/85/135
f 67/74/136 80/90/136 55/58/136
f 69/77/137 1/1/137 76/86/137
f 73/83/138 71/81/138 77/87/138
f 1/1/139 75/85/139 79/89/139
f 72/82/140 3/3/140 77/87/140
f 79/89/141 74/84/141 78/88/141
f 3/3/142 64/71/142 2/2/142
f 79/89/143 5/5/143 1/1/143
f 80/90/144 1/1/144 10/10/144
f 78/88/145 77/87/145 4/4/145
f 6/6/146 7/7/146 15/16/146
f 34/35/147 35/36/147 38/39/147
f 22/23/148 55/58/148 80/90/148
f 44/45/149 42/43/149 37/38/149
f 52/53/150 47/48/150 51/52/150
f 61/65/151 62/67/151 53/54/151
f 70/79/152 67/75/152 60/63/152
f 73/83/153 74/84/153 68/76/153
f 78/88/154 74/84/154 73/83/154
f 79/89/155 75/85/155 74/84/155
f 3/3/156 72/82/156 64/71/156
