# Blender v2.92.0 OBJ File: 'tree.blend'
# www.blender.org
mtllib tree.mtl
o Cube
v 0.364374 8.745758 -0.364374
v 0.535534 -0.044397 -0.535534
v 0.364374 8.745758 0.364374
v 0.535534 -0.044397 0.535534
v -0.364374 8.745758 -0.364374
v -0.535534 -0.044397 -0.535534
v -0.364374 8.745758 0.364374
v -0.535534 -0.044397 0.535534
v 0.535534 1.826570 -0.535534
v -0.535534 1.826570 0.535534
v 0.535534 1.826570 0.535534
v -0.535534 1.826570 -0.535534
v -2.288872 1.877939 2.288872
v 2.288872 1.877939 -2.288872
v 2.288872 1.877939 2.288872
v -2.288872 1.877939 -2.288872
vt 0.704026 0.228027
vt 0.676206 0.180899
vt 0.704026 0.180899
vt 0.465367 0.352485
vt 0.465367 0.056441
vt 0.792760 0.589825
vt 0.622574 0.761412
vt 0.622574 0.465367
vt 0.886173 0.056441
vt 0.816907 0.125707
vt 0.816907 0.056441
vt 0.226626 0.589825
vt 0.056441 0.761412
vt 0.056441 0.465367
vt 0.509693 0.589825
vt 0.339507 0.761412
vt 0.339507 0.465367
vt 0.056441 0.943559
vt 0.102803 0.874293
vt 0.102803 0.943559
vt 0.215685 0.943559
vt 0.262048 0.874293
vt 0.262048 0.943559
vt 0.816907 0.307855
vt 0.863270 0.238588
vt 0.863270 0.307855
vt 0.905641 0.534633
vt 0.943064 0.465367
vt 0.943064 0.534633
vt 0.056441 0.056441
vt 0.239096 0.169830
vt 0.169830 0.169830
vt 0.352486 0.056441
vt 0.239096 0.239096
vt 0.056441 0.352486
vt 0.169830 0.239096
vt 0.352486 0.352486
vt 0.676206 0.228027
vt 0.792760 0.636954
vt 0.886173 0.125707
vt 0.226626 0.636954
vt 0.509693 0.636954
vt 0.056441 0.874293
vt 0.215685 0.874293
vt 0.816907 0.238588
vt 0.905641 0.465367
vn 0.0000 1.0000 0.0000
vn -0.0000 0.2698 0.9629
vn -0.9629 0.2698 0.0000
vn 0.0000 -1.0000 0.0000
vn 0.9629 0.2698 0.0000
vn 0.0000 0.2698 -0.9629
vn 0.0000 0.0000 -1.0000
vn 1.0000 0.0000 0.0000
vn -1.0000 0.0000 0.0000
vn 0.0000 0.0000 1.0000
vn 0.0000 -0.9996 -0.0293
vn 0.0293 -0.9996 0.0000
vn -0.0293 -0.9996 0.0000
vn 0.0000 -0.9996 0.0293
usemtl Material
s off
f 5/1/1 3/2/1 1/3/1
f 3/2/2 13/4/2 15/5/2
f 7/6/3 16/7/3 13/8/3
f 2/9/4 8/10/4 6/11/4
f 1/12/5 15/13/5 14/14/5
f 5/15/6 14/16/6 16/17/6
f 12/18/7 2/19/7 6/20/7
f 9/21/8 4/22/8 2/23/8
f 10/24/9 6/25/9 8/26/9
f 11/27/10 8/28/10 4/29/10
f 16/30/11 9/31/11 12/32/11
f 14/33/12 11/34/12 9/31/12
f 13/35/13 12/32/13 10/36/13
f 15/37/14 10/36/14 11/34/14
f 5/1/1 7/38/1 3/2/1
f 3/2/2 7/38/2 13/4/2
f 7/6/3 5/39/3 16/7/3
f 2/9/4 4/40/4 8/10/4
f 1/12/5 3/41/5 15/13/5
f 5/15/6 1/42/6 14/16/6
f 12/18/7 9/43/7 2/19/7
f 9/21/8 11/44/8 4/22/8
f 10/24/9 12/45/9 6/25/9
f 11/27/10 10/46/10 8/28/10
f 16/30/11 14/33/11 9/31/11
f 14/33/12 15/37/12 11/34/12
f 13/35/13 16/30/13 12/32/13
f 15/37/14 13/35/14 10/36/14
